<?xml version="1.0"?>
<svg version="1.1" xmlns="http://www.w3.org/2000/svg" width="482" height="72" style=""><path fill="#f5f3e9" d="M16.12,51.12l0-1.68l2.38-0.56l0-15.12l-2.38-0.56l0-1.54l7.98-0.14l0,1.68l-2.66,0.56l0,6.16l9.38,0l0-6.16l-2.66-0.56l0-1.54l7.98-0.14l0,1.68l-2.38,0.56l0,15.12l2.38,0.56l0,1.68l-7.98,0l0-1.68l2.66-0.56l0-6.72l-9.38,0l0,6.72l2.66,0.56l0,1.68l-7.98,0z M52.9008,44.12l-9.66,0c0,3.08,1.652,5.04,4.06,5.04c2.8,0,4.704-1.54,4.704-1.54l0.98,1.456s-2.604,2.324-5.964,2.324c-4.48,0-6.72-2.94-6.72-7.56c0-4.48,2.8-7.84,6.86-7.84s5.88,2.38,5.88,6.58c0,0.7-0.14,1.484-0.14,1.54z M43.3528,42.02l6.72,0c0-2.1-0.812-3.836-3.052-3.836s-3.5,1.736-3.668,3.836z M64.6776,49.58l0,1.54l-7.756,0l0-1.54l2.38-0.7l0-17.08l-2.38-0.56l0-1.54l5.236-0.14l0,19.32z M75.1944,49.58l0,1.54l-7.756,0l0-1.54l2.38-0.7l0-17.08l-2.38-0.56l0-1.54l5.236-0.14l0,19.32z M85.5152,36c4.2,0,6.58,2.94,6.58,7.42c0,4.76-2.8,7.98-7,7.98s-6.72-2.52-6.72-7.56c0-4.76,2.94-7.84,7.14-7.84z M85.3752,38.24c-2.8,0-4.06,1.82-4.06,5.46c0,3.36,1.12,5.46,3.92,5.46s3.92-1.96,3.92-5.6c0-3.08-0.98-5.32-3.78-5.32z M97.516,55.432l-1.26-1.064s1.484-1.96,1.484-2.968c0-0.56-0.644-1.064-0.644-2.044c0-1.064,0.728-1.876,1.82-1.876c0.98,0,1.82,0.504,1.82,2.072s-1.26,3.78-3.22,5.88z"/><path fill="#f4f5d3" d="M111.0168,36.56l0-7l2.66,0l-0.56,7l-2.1,0z M126.7584,51.12l0-1.68l2.38-0.56l0-15.12l-2.38-0.56l0-1.54l7.7-0.14l0,1.68l-2.38,0.56l0,15.12l2.38,0.56l0,1.68l-7.7,0z M148.24,40.62l-0.14-3.5s3.08-1.12,5.46-1.12c3.248,0,5.18,1.12,5.18,4.34l0,8.54l2.24,0.56l0,1.54l-4.34,0.14l-0.588-1.96c-0.952,0.952-2.632,2.24-4.592,2.24c-2.66,0-4.2-1.54-4.2-4.2c0-3.22,2.52-4.34,6.44-4.34l2.24,0l0-2.24c0-1.68-0.98-2.52-2.66-2.52s-2.828,0.42-2.828,0.42l-0.392,2.1l-1.82,0z M155.94,44.68l-1.96,0c-2.8,0-3.864,0.7-3.864,2.38c0,1.26,0.784,2.1,2.044,2.1c2.1,0,3.78-2.24,3.78-2.24l0-2.24z M169.4808,36.28l0.252,1.988c0.644-0.616,2.772-2.268,5.068-2.268c2.016,0,3.248,0.952,3.892,2.408c0.364-0.364,2.632-2.408,5.208-2.408c3.08,0,4.34,1.96,4.34,5.04l0,7.84l2.1,0.7l0,1.54l-6.72,0l0-1.54l1.82-0.7l0-7.56c0-1.96-0.56-2.94-2.38-2.94c-2.38,0-3.92,2.24-3.92,2.24l0,8.26l1.82,0.7l0,1.54l-6.44,0l0-1.54l1.82-0.7l0-7.56c0-1.96-0.56-2.94-2.38-2.94c-2.38,0-3.92,2.24-3.92,2.24l0,8.26l1.82,0.7l0,1.54l-7,0l0-1.54l2.38-0.7l0-10.36l-2.38-0.56l0-1.54z M203.7024,40.62l-0.14-3.5s3.08-1.12,5.46-1.12c3.248,0,5.18,1.12,5.18,4.34l0,8.54l2.24,0.56l0,1.54l-4.34,0.14l-0.588-1.96c-0.952,0.952-2.632,2.24-4.592,2.24c-2.66,0-4.2-1.54-4.2-4.2c0-3.22,2.52-4.34,6.44-4.34l2.24,0l0-2.24c0-1.68-0.98-2.52-2.66-2.52s-2.828,0.42-2.828,0.42l-0.392,2.1l-1.82,0z M211.4024,44.68l-1.96,0c-2.8,0-3.864,0.7-3.864,2.38c0,1.26,0.784,2.1,2.044,2.1c2.1,0,3.78-2.24,3.78-2.24l0-2.24z M224.3832,29.56l0,8.064c0.924-0.728,2.38-1.624,4.2-1.624c4.06,0,5.88,2.94,5.88,7.28c0,4.76-2.66,8.12-7.7,8.12c-3.08,0-5.18-0.7-5.18-0.7l0-18.9l-2.24-0.56l0-1.54z M224.3832,40.06l0,8.82s0.728,0.28,2.8,0.28c3.248,0,4.34-2.52,4.34-5.6s-0.98-5.32-3.5-5.32s-3.64,1.82-3.64,1.82z M243.524,29.56l0,8.456c0.868-0.728,2.828-2.016,4.9-2.016c3.08,0,4.48,1.96,4.48,5.04l0,7.84l2.1,0.7l0,1.54l-6.72,0l0-1.54l1.82-0.672l0-7.588c0-1.96-0.616-2.94-2.436-2.94c-2.38,0-4.144,2.24-4.144,2.24l0,8.26l1.82,0.7l0,1.54l-7,0l0-1.54l2.38-0.7l0-17.08l-2.38-0.56l0-1.54z M260.7048,31.66c0-1.26,0.84-1.96,1.82-1.96c1.12,0,1.82,0.56,1.82,1.96c0,1.26-0.98,1.96-1.82,1.96c-1.12,0-1.82-0.7-1.82-1.96z M266.1648,49.58l0,1.54l-7.28,0l0-1.54l2.38-0.7l0-10.36l-2.38-0.56l0-1.54l5.18-0.14l0,12.6z M271.4176,31.66c0-1.26,0.84-1.96,1.82-1.96c1.12,0,1.82,0.56,1.82,1.96c0,1.26-0.98,1.96-1.82,1.96c-1.12,0-1.82-0.7-1.82-1.96z M274.9176,36.28l0,16.1c0,3.36-1.82,5.46-5.18,5.46c-0.7,0-1.792-0.14-1.792-0.14l0.252-1.96l1.4,0c1.96,0,2.52-1.12,2.52-2.8l0-14.42l-2.38-0.56l0-1.54z M282.0184,31.66c0-1.26,0.84-1.96,1.82-1.96c1.12,0,1.82,0.56,1.82,1.96c0,1.26-0.98,1.96-1.82,1.96c-1.12,0-1.82-0.7-1.82-1.96z M287.4784,49.58l0,1.54l-7.28,0l0-1.54l2.38-0.7l0-10.36l-2.38-0.56l0-1.54l5.18-0.14l0,12.6z M300.5992,36.42l0,2.1l-4.06,0l0,8.988c0,1.288,0.616,1.708,1.4,1.708c0.672,0,1.456-0.308,2.184-0.7l0.756,1.484c-1.26,0.924-2.52,1.4-3.92,1.4c-1.68,0-3.22-0.924-3.22-4.06l0-8.82l-2.8,0l0-1.82l2.8-0.28l0-3.528l2.8-0.56l0,4.088l4.06,0z M327.4008,37.96l-2.716,0.392s0.756,1.008,0.756,2.828c0,3.78-2.52,5.46-6.16,5.46c-1.26,0-2.1-0.252-2.1-0.252l-0.14,2.632l4.34,0c3.64,0,5.6,1.4,5.6,4.06c0,3.08-2.38,5.04-7.28,5.04c-3.92,0-6.72-0.98-6.72-4.06c0-2.52,2.94-3.5,2.94-3.5s-1.68-0.14-1.68-1.596c0-0.924,1.456-3.164,1.456-3.164s-2.156-0.98-2.156-4.34c0-3.64,2.52-5.46,6.16-5.46c1.82,0,2.8,0.532,2.8,0.532l4.9-0.112l0,1.54z M319.5608,37.96c-2.24,0-3.22,1.12-3.22,3.36c0,1.96,0.98,3.36,3.08,3.36c2.24,0,3.22-0.98,3.22-3.36c0-2.1-0.98-3.36-3.08-3.36z M320.6808,51.12l-3.08,0s-1.82,0.84-1.82,2.52c0,1.96,1.68,2.38,4.34,2.38c2.8,0,4.2-0.84,4.2-2.66s-1.4-2.24-3.64-2.24z M332.2616,40.62l-0.14-3.5s3.08-1.12,5.46-1.12c3.248,0,5.18,1.12,5.18,4.34l0,8.54l2.24,0.56l0,1.54l-4.34,0.14l-0.588-1.96c-0.952,0.952-2.632,2.24-4.592,2.24c-2.66,0-4.2-1.54-4.2-4.2c0-3.22,2.52-4.34,6.44-4.34l2.24,0l0-2.24c0-1.68-0.98-2.52-2.66-2.52s-2.828,0.42-2.828,0.42l-0.392,2.1l-1.82,0z M339.9616,44.68l-1.96,0c-2.8,0-3.864,0.7-3.864,2.38c0,1.26,0.784,2.1,2.044,2.1c2.1,0,3.78-2.24,3.78-2.24l0-2.24z M350.7024,31.66c0-1.26,0.84-1.96,1.82-1.96c1.12,0,1.82,0.56,1.82,1.96c0,1.26-0.98,1.96-1.82,1.96c-1.12,0-1.82-0.7-1.82-1.96z M356.1624,49.58l0,1.54l-7.28,0l0-1.54l2.38-0.7l0-10.36l-2.38-0.56l0-1.54l5.18-0.14l0,12.6z M367.3232,41.88l2.1-3.528l-1.26-0.392l0-1.54l6.16-0.14l0,1.68l-1.988,0.336l-0.028,0l-2.884,4.284l3.612,6.3l0.028,0l2.1,0.7l0,1.54l-3.78,0l-4.004-7.14l-2.436,0l0,4.9l1.82,0.7l0,1.54l-7,0l0-1.54l2.38-0.7l0-17.08l-2.38-0.56l0-1.54l5.18-0.14l0,12.32l2.38,0z M381.564,38.24l2.38,10.36l3.668-12.18l2.66-0.42l3.472,12.6l2.24-10.22l-1.96-0.42l0-1.54l6.3-0.14l0,1.68l-1.624,0.28l-3.416,12.88l-3.22,0l-2.66-8.68l-0.672-2.688l-0.588,2.688l-2.66,8.68l-3.22,0l-3.5-12.74l-1.4-0.42l0-1.54l6.3-0.14l0,1.68z M404.6248,40.62l-0.14-3.5s3.08-1.12,5.46-1.12c3.248,0,5.18,1.12,5.18,4.34l0,8.54l2.24,0.56l0,1.54l-4.34,0.14l-0.588-1.96c-0.952,0.952-2.632,2.24-4.592,2.24c-2.66,0-4.2-1.54-4.2-4.2c0-3.22,2.52-4.34,6.44-4.34l2.24,0l0-2.24c0-1.68-0.98-2.52-2.66-2.52s-2.828,0.42-2.828,0.42l-0.392,2.1l-1.82,0z M412.3248,44.68l-1.96,0c-2.8,0-3.864,0.7-3.864,2.38c0,1.26,0.784,2.1,2.044,2.1c2.1,0,3.78-2.24,3.78-2.24l0-2.24z M436.6456,49.44l0,1.54l-4.76,0.14l-0.224-1.596c-0.812,0.812-2.268,1.876-4.396,1.876c-4.06,0-5.88-2.94-5.88-7.28c0-4.76,2.38-8.12,7.42-8.12c1.036,0,1.932,0.196,2.66,0.448l0-4.648l-2.38-0.56l0-1.54l5.18-0.14l0,19.32z M431.4656,47.06l0-8.26s-0.98-0.56-2.94-0.56c-3.248,0-4.2,2.52-4.2,5.6s0.98,5.32,3.5,5.32c2.38,0,3.64-2.1,3.64-2.1z"/></svg>
